# xmcd CD database file
#
# Track frame offsets:
#	150
#	7542
#	32815
#	53722
#	74615
#	96097
#	103328
#	123955
#	144956
#	166466
#
# Disc length: 2611 seconds
#
# Revision: 4
# Processed by: cddbd v1.5.2PL0 Copyright (c) Steve Scherf et al.
# Submitted via: CDex 1.70beta2
#
DISCID=7e0a310a
DTITLE=APHASIA - Wings of fire
DYEAR=2001
DGENRE=J-Metal
TTITLE0=Overture
TTITLE1=Wings of fire
TTITLE2=Heart to heart
TTITLE3=炎
TTITLE4=Tomorrow will come
TTITLE5=Mirage on the ice
TTITLE6=Devil's luck
TTITLE7=For you
TTITLE8=Promised land
TTITLE9=Rain～追憶～
EXTD=YEAR: 2001
EXTT0=
EXTT1=
EXTT2=
EXTT3=
EXTT4=
EXTT5=
EXTT6=
EXTT7=
EXTT8=
EXTT9=
PLAYORDER=
